<svg width="47" height="48" viewBox="0 0 47 48" fill="none" xmlns="http://www.w3.org/2000/svg">
<path d="M12.621 32.7803C11.8206 32.7803 9.33398 30.3532 9.33398 27.6629C9.33398 24.9725 11.7222 23.0797 12.9163 22.4695C12.9163 22.4695 12.3314 17.5009 16.7909 15.6733C21.2504 13.8456 24.321 18.5218 24.321 18.5218C24.321 18.5218 26.8797 16.1119 29.6577 17.4279C32.4358 18.7438 31.9972 22.2529 31.9972 22.2529C32.6811 22.2904 33.628 22.4936 34.5346 22.9622M14.8124 32.7803H31.9972C33.7761 32.7803 37.334 31.7569 37.334 27.6629C37.334 26.6426 37.113 25.8009 36.7537 25.1106" stroke="#B8BAFF" stroke-width="1.16667"/>
</svg>
