<svg width="98" height="24" viewBox="0 0 98 24" fill="none" xmlns="http://www.w3.org/2000/svg">
<path d="M9.71411 15.6736C11.7431 15.6736 13.3879 14.0288 13.3879 11.9998C13.3879 9.97076 11.7431 8.32593 9.71411 8.32593C7.68511 8.32593 6.04028 9.97076 6.04028 11.9998C6.04028 14.0288 7.68511 15.6736 9.71411 15.6736Z" fill="white"/>
<path d="M6.12231 21.7678V18.7548H15.8462C16.1877 18.7548 16.465 18.4746 16.465 18.1294V2.23169H19.5368V20.5222C19.5368 21.7684 18.2233 21.7684 18.2233 21.7684H6.12231V21.7678Z" fill="white"/>
<path d="M13.4139 2.23169V5.24466H3.69061C3.34908 5.24466 3.07183 5.52489 3.07183 5.87009V21.7678H0V3.47796C0 2.23169 1.31353 2.23169 1.31353 2.23169H13.4139V2.23169Z" fill="white"/>
<path d="M29.3052 24V5.31058H31.6679V7.2185C32.2464 6.44606 32.6643 6.10738 33.4044 5.65207C34.1445 5.19675 34.9886 4.96863 35.9377 4.96863C37.1518 4.96863 38.262 5.28154 39.2682 5.90783C40.2739 6.53412 41.0614 7.38385 41.631 8.45562C42.2001 9.52786 42.4849 10.6999 42.4849 11.9712C42.4849 13.2425 42.2001 14.3339 41.631 15.4155C41.0618 16.4972 40.2791 17.3656 39.2827 18.02C38.2864 18.6749 37.1715 19.0023 35.9381 19.0023C34.9891 19.0023 34.145 18.7747 33.4049 18.3193C32.6648 17.864 32.2066 17.4748 31.6684 16.8213V24H29.3056H29.3052ZM35.8524 16.7253C37.1804 16.7253 38.2245 16.27 38.9839 15.3589C39.7427 14.4478 40.1226 13.3095 40.1226 11.9431C40.1226 10.5767 39.7385 9.45244 38.9698 8.56992C38.2011 7.68739 37.1621 7.24613 35.8529 7.24613C34.5436 7.24613 33.4948 7.68739 32.7641 8.56992C32.0333 9.45244 31.6684 10.6052 31.6684 12.0283C31.6684 13.4514 32.0286 14.5668 32.75 15.4301C33.4709 16.2939 34.5052 16.7253 35.8529 16.7253H35.8524Z" fill="white"/>
<path d="M64.049 18.6895H61.7148V16.8214C61.4796 17.161 60.9653 17.6669 60.3057 18.1489C59.5815 18.6783 58.6306 19.0029 57.3593 19.0029C55.8407 19.0029 54.6691 18.467 53.8438 17.3948C53.0184 16.323 52.6052 14.9322 52.6052 13.2243V5.31067H54.968V12.6547C54.968 13.8314 55.2289 14.8039 55.7507 15.5726C56.2726 16.3413 57.0553 16.7254 58.099 16.7254C59.2565 16.7254 60.1483 16.3127 60.7746 15.4868C61.4009 14.6615 61.7138 13.556 61.7138 12.1704V5.31067H64.048V18.6895H64.049Z" fill="white"/>
<path d="M67.1799 18.6895V5.31064H69.5427V7.36095C69.9727 6.6199 70.5292 6.20299 71.1939 5.76595C71.8581 5.32984 72.7308 5.11108 73.8129 5.11108C74.1731 5.11108 74.5244 5.16823 74.8659 5.28206V7.61625C74.486 7.52162 74.1066 7.47384 73.7276 7.47384C70.9381 7.47384 69.5432 9.22952 69.5432 12.7399V18.6895H67.1804H67.1799Z" fill="white"/>
<path d="M86.4471 18.6894V16.8213C86.056 17.389 85.4508 17.864 84.7106 18.3193C83.9705 18.7747 83.1259 19.0023 82.1774 19.0023C80.9435 19.0023 79.8291 18.6749 78.8323 18.02C77.836 17.3652 77.0532 16.4972 76.4841 15.4155C75.9149 14.3339 75.6301 13.1858 75.6301 11.9712C75.6301 10.7565 75.9149 9.52786 76.4841 8.45562C77.0537 7.38385 77.8406 6.53412 78.8468 5.90783C79.8526 5.28154 80.9627 4.96863 82.1774 4.96863C83.1259 4.96863 83.9705 5.19629 84.7106 5.65207C85.4508 6.10738 85.914 6.38657 86.4471 7.2185V5.31058H88.7813V18.6894H86.4471V18.6894ZM85.3515 15.4301C86.0817 14.5668 86.4471 13.4332 86.4471 12.0283C86.4471 10.6235 86.0813 9.45197 85.3515 8.56992C84.6207 7.68739 83.5817 7.24613 82.2345 7.24613C80.8873 7.24613 79.8863 7.68739 79.1171 8.56992C78.3484 9.45244 77.9643 10.5767 77.9643 11.9431C77.9643 13.3095 78.3437 14.4482 79.1031 15.3589C79.8619 16.27 80.9056 16.7253 82.2345 16.7253C83.5635 16.7253 84.6207 16.2939 85.3515 15.4301V15.4301Z" fill="white"/>
<path d="M50.7803 16.4395V18.6894H46.5855C46.5855 18.6894 44.9568 18.6894 44.9568 17.1609V0H47.3195V15.6723C47.3195 16.0957 47.6629 16.4391 48.0864 16.4391H50.7803V16.4395Z" fill="white"/>
<path d="M97.6839 16.4395V18.6894H93.4891C93.4891 18.6894 91.8604 18.6894 91.8604 17.1609V0H94.2231V15.6723C94.2231 16.0957 94.5665 16.4391 94.9899 16.4391H97.6839V16.4395Z" fill="white"/>
</svg>
