<svg width="47" height="47" viewBox="0 0 47 47" fill="none" xmlns="http://www.w3.org/2000/svg">
<g clip-path="url(#clip0_154_12505)">
<path d="M23.334 36.458C30.5827 36.458 36.459 30.5817 36.459 23.333C36.459 16.0843 30.5827 10.208 23.334 10.208C16.0852 10.208 10.209 16.0843 10.209 23.333C10.209 30.5817 16.0852 36.458 23.334 36.458Z" stroke="#B8BAFF" stroke-width="1.16667" stroke-miterlimit="10" stroke-linecap="round" stroke-linejoin="round"/>
<path d="M18.2596 21.7584C19.1294 21.7584 19.8346 21.0532 19.8346 20.1834C19.8346 19.3135 19.1294 18.6084 18.2596 18.6084C17.3897 18.6084 16.6846 19.3135 16.6846 20.1834C16.6846 21.0532 17.3897 21.7584 18.2596 21.7584Z" fill="#B8BAFF"/>
<path d="M28.409 21.7584C29.2788 21.7584 29.984 21.0532 29.984 20.1834C29.984 19.3135 29.2788 18.6084 28.409 18.6084C27.5391 18.6084 26.834 19.3135 26.834 20.1834C26.834 21.0532 27.5391 21.7584 28.409 21.7584Z" fill="#B8BAFF"/>
<path d="M30.5092 25.7832C29.8092 28.7582 26.8342 31.0332 23.3342 31.0332C19.8342 31.0332 16.8592 28.7582 16.1592 25.7832H30.5092Z" fill="#B8BAFF"/>
</g>
<defs>
<clipPath id="clip0_154_12505">
<rect width="28" height="28" fill="white" transform="translate(9.33301 9.3335)"/>
</clipPath>
</defs>
</svg>
